HIERARCHY
ROOT Hips
{
    OFFSET 0.000000 0.000000 0.000000
    CHANNELS 6 Xposition Yposition Zposition Zrotation Xrotation Yrotation
    JOINT Spine
    {
        OFFSET -0.000000 8.834163 0.000000
        CHANNELS 3 Zrotation Xrotation Yrotation
        JOINT Spine1
        {
            OFFSET -0.000000 17.855492 0.000000
            CHANNELS 3 Zrotation Xrotation Yrotation
            JOINT Neck
            {
                OFFSET -0.000000 17.782162 1.616560
                CHANNELS 3 Zrotation Xrotation Yrotation
                JOINT Head
                {
                    OFFSET -0.000000 15.082717 -2.154674
                    CHANNELS 3 Zrotation Xrotation Yrotation
                    End Site
                    {
                        OFFSET -0.000000 26.933422 0.000000
                    }
                }
            }
            JOINT LeftShoulder
            {
                OFFSET 4.280775 15.989452 -0.632416
                CHANNELS 3 Zrotation Xrotation Yrotation
                JOINT LeftArm
                {
                    OFFSET 11.735877 0.000000 0.000000
                    CHANNELS 3 Zrotation Xrotation Yrotation
                    JOINT LeftForeArm
                    {
                        OFFSET 33.149986 0.000000 0.000000
                        CHANNELS 3 Zrotation Xrotation Yrotation
                        JOINT LeftHand
                        {
                            OFFSET 28.572401 0.000000 0.000000
                            CHANNELS 3 Zrotation Xrotation Yrotation
                            End Site
                            {
                                OFFSET 16.160055 0.000000 0.000000
                            }
                        }
                    }
                }
            }
            JOINT RightShoulder
            {
                OFFSET -4.290631 15.989452 -0.632416
                CHANNELS 3 Zrotation Xrotation Yrotation
                JOINT RightArm
                {
                    OFFSET -11.735877 0.000000 0.000000
                    CHANNELS 3 Zrotation Xrotation Yrotation
                    JOINT RightForeArm
                    {
                        OFFSET -33.149986 0.000000 0.000000
                        CHANNELS 3 Zrotation Xrotation Yrotation
                        JOINT RightHand
                        {
                            OFFSET -28.572401 0.000000 0.000000
                            CHANNELS 3 Zrotation Xrotation Yrotation
                            End Site
                            {
                                OFFSET -16.160055 0.000000 0.000000
                            }
                        }
                    }
                }
            }
        }
    }
    JOINT LeftUpLeg
    {
        OFFSET 10.773369 0.000000 0.000000
        CHANNELS 3 Zrotation Xrotation Yrotation
        JOINT LeftLeg
        {
            OFFSET -0.000000 -54.062664 0.000000
            CHANNELS 3 Zrotation Xrotation Yrotation
            JOINT LeftFoot
            {
                OFFSET -0.000000 -48.941059 0.000000
                CHANNELS 3 Zrotation Xrotation Yrotation
                JOINT LeftToeBase
                {
                    OFFSET -0.000000 -7.002690 16.160055
                    CHANNELS 3 Zrotation Xrotation Yrotation
                    End Site
                    {
                        OFFSET -0.000000 0.000000 4.309348
                    }
                }
            }
        }
    }
    JOINT RightUpLeg
    {
        OFFSET -10.773369 0.000000 0.000000
        CHANNELS 3 Zrotation Xrotation Yrotation
        JOINT RightLeg
        {
            OFFSET -0.000000 -54.062664 0.000000
            CHANNELS 3 Zrotation Xrotation Yrotation
            JOINT RightFoot
            {
                OFFSET -0.000000 -48.941059 0.000000
                CHANNELS 3 Zrotation Xrotation Yrotation
                JOINT RightToeBase
                {
                    OFFSET -0.000000 -7.002690 16.160055
                    CHANNELS 3 Zrotation Xrotation Yrotation
                    End Site
                    {
                        OFFSET -0.000000 0.000000 4.309348
                    }
                }
            }
        }
    }
}
MOTION
Frames:    8
Frame Time:    0.008333
-72.094139    106.235168    16.300234    1.132804    -3.168947    -79.722298    -7.826735    -25.965574    -4.719213    8.418718    13.799131    -3.932605    3.310869    33.258789    5.673630    -15.742078    3.637168    4.712728    7.870425    0.722655    4.152216    -16.231888    4.436675    -12.009616    2.324915    -8.093373    -9.151732    7.932675    -7.765945    2.083760    -14.000996    1.479868    8.669576    10.675171    -8.712965    8.402795    -4.319769    -2.795906    3.394967    -5.650828    -2.518603    -3.029069    0.162418    4.769141    -1.907465    0.792559    5.132525    1.399785    -0.558757    -20.008066    7.732250    0.000000    0.000000    0.000000    -4.991760    7.946254    -3.247341    -0.957967    3.896357    -1.868364    -3.477656    -22.034668    -22.861246    0.000000    0.000000    0.000000    
-72.087326    106.236565    16.303652    1.144916    -3.173275    -79.730988    -7.843946    -25.895718    -4.655550    8.405605    13.648295    -3.857168    3.504215    33.287228    5.561612    -15.774182    3.760465    4.642932    7.937003    0.772812    4.001599    -16.202284    4.878936    -11.898952    2.403510    -8.328562    -9.356142    7.938019    -7.977844    2.271026    -13.926828    1.563814    8.493271    10.677045    -8.686941    8.449263    -4.313366    -2.797239    3.416912    -5.625030    -2.513815    -3.154778    0.152538    4.756237    -1.895216    0.795418    5.129422    1.373809    -0.505035    -19.997889    7.759050    0.000000    0.000000    0.000000    -4.996018    7.932182    -3.248461    -0.968132    3.889731    -1.887160    -3.442132    -22.035137    -22.827974    0.000000    0.000000    0.000000    
-72.081612    106.237320    16.304573    1.151020    -3.168270    -79.733849    -7.885118    -25.733223    -4.522505    8.429482    13.304875    -3.703602    3.832932    33.381062    5.331575    -15.797629    3.941932    4.484763    8.042853    0.895117    3.665457    -16.277260    4.831112    -11.888943    2.399842    -8.341976    -9.337064    7.957403    -7.987171    2.335043    -13.798839    1.740900    8.170785    10.640919    -8.623947    8.482561    -4.302588    -2.787318    3.434553    -5.635387    -2.500781    -3.205134    0.158846    4.754822    -1.904920    0.783104    5.110898    1.405824    -0.490864    -19.993511    7.752847    0.000000    0.000000    0.000000    -4.994142    7.927963    -3.242617    -0.968505    3.876778    -1.843150    -3.470655    -22.019718    -22.878004    0.000000    0.000000    0.000000    
-72.076500    106.238388    16.307371    1.158185    -3.173301    -79.741081    -7.862294    -25.890615    -4.692510    8.405285    13.624471    -3.888423    3.469634    33.251122    5.581991    -15.709475    3.953905    4.690712    7.931619    0.739259    4.013620    -16.217489    4.689191    -11.903406    2.371541    -8.233532    -9.235690    7.904692    -7.890899    2.235548    -13.956192    1.652866    8.440830    10.776933    -8.847826    8.647840    -4.300647    -2.754444    3.233088    -5.646281    -2.484820    -3.010206    0.147845    4.746317    -1.891217    0.791376    5.112546    1.407493    -0.516803    -19.987432    7.732338    0.000000    0.000000    0.000000    -4.999248    7.920131    -3.243102    -0.978796    3.872030    -1.861154    -3.438305    -22.024366    -22.844717    0.000000    0.000000    0.000000    
-72.071220    106.238792    16.310310    1.163380    -3.170861    -79.745728    -7.859002    -25.887480    -4.709600    8.396658    13.614279    -3.904734    3.480944    33.248734    5.590368    -15.735729    4.009275    4.706007    7.925311    0.724675    4.033649    -16.211491    4.627509    -11.911798    2.350114    -8.213580    -9.188619    7.896504    -7.874424    2.225890    -13.954158    1.652269    8.475061    10.789657    -8.845167    8.637229    -4.291801    -2.762394    3.223976    -5.635751    -2.492905    -3.024942    0.145786    4.743923    -1.873508    0.793474    5.101723    1.396597    -0.535739    -19.987318    7.736308    0.000000    0.000000    0.000000    -4.996108    7.917008    -3.241253    -0.986934    3.856471    -1.863254    -3.441861    -22.013588    -22.843739    0.000000    0.000000    0.000000    
-72.065445    106.240143    16.316084    1.173260    -3.178610    -79.756775    -7.864148    -25.888557    -4.731490    8.387559    13.604124    -3.923485    3.455107    33.239037    5.597893    -15.727860    4.085651    4.720464    7.929594    0.719636    4.085055    -16.219740    4.602061    -11.933647    2.341821    -8.233326    -9.169513    7.899550    -7.894707    2.232617    -13.953591    1.643429    8.518471    10.817216    -9.086819    8.704086    -4.237712    -2.675581    3.140199    -5.617002    -2.403659    -3.178720    0.131811    4.738810    -1.861003    0.792453    5.090346    1.392424    -0.500327    -19.980169    7.745292    0.000000    0.000000    0.000000    -5.006850    7.909663    -3.252469    -0.997817    3.843094    -1.841311    -3.415544    -22.013226    -22.836351    0.000000    0.000000    0.000000    
-72.059669    106.239830    16.318096    1.175744    -3.184880    -79.760353    -7.878554    -25.874851    -4.746412    8.383803    13.580129    -3.933824    3.439590    33.255302    5.599779    -15.701818    4.120023    4.727931    7.929400    0.714655    4.079682    -16.211657    4.569814    -11.919862    2.318950    -8.230247    -9.143373    7.927979    -7.893486    2.231787    -13.942439    1.657402    8.550359    10.823525    -9.103683    8.688987    -4.229239    -2.682036    3.134056    -5.612722    -2.410942    -3.173808    0.119088    4.737370    -1.857077    0.802485    5.088183    1.396631    -0.526999    -19.968452    7.728479    0.000000    0.000000    0.000000    -5.012983    7.910629    -3.252729    -1.002183    3.827707    -1.850282    -3.430988    -22.008057    -22.830460    0.000000    0.000000    0.000000    
-72.054047    106.242027    16.317759    1.181826    -3.182853    -79.763123    -7.900435    -25.879755    -4.765249    8.409470    13.582967    -3.950567    3.416873    33.240551    5.599276    -15.679741    4.181391    4.733789    7.917120    0.700387    4.078923    -16.213776    4.535645    -11.915842    2.332157    -8.200758    -9.100711    7.898746    -7.866752    2.196857    -13.951032    1.656128    8.555302    10.836270    -9.143808    8.709184    -4.214064    -2.677018    3.113183    -5.616670    -2.406355    -3.187351    0.120546    4.731211    -1.864649    0.800819    5.080407    1.399926    -0.512816    -19.961874    7.733836    0.000000    0.000000    0.000000    -5.004832    7.909838    -3.252046    -1.017167    3.813224    -1.840753    -3.425874    -21.997601    -22.838133    0.000000    0.000000    0.000000    
